<?xml version="1.0" encoding="iso-8859-1"?>
<!-- Generator: Adobe Illustrator 19.0.0, SVG Export Plug-In . SVG Version: 6.00 Build 0)  -->
<svg xmlns="http://www.w3.org/2000/svg" xmlns:xlink="http://www.w3.org/1999/xlink" version="1.1" id="Capa_1" x="0px" y="0px" viewBox="0 0 460 460" style="enable-background:new 0 0 460 460;" xml:space="preserve" width="512" height="512">
<g id="XMLID_981_">
	<path id="XMLID_979_" style="fill:#E9CC85;" d="M387.544,206.007l-27.67,170C351.993,424.424,310.028,460,260.796,460h-2.531   c-13.6,0-26.846-4.529-37.449-13.015c-4.767-3.815-10.166-6.985-14.947-6.985h0c-4.835,0-10.218,3.142-14.956,6.935   C180.289,455.44,167.029,460,153.401,460h-2.835c-49.233,0-91.198-35.576-99.078-83.993l-27.67-170   C13.918,145.185,61.05,90,122.896,90h165.57C350.312,90,397.444,145.185,387.544,206.007z"/>
	<path id="XMLID_978_" style="fill:#B04230;" d="M387.544,206.007l-27.67,170C351.993,424.424,310.028,460,260.796,460h-2.531   c-13.6,0-26.846-4.529-37.449-13.015c-4.767-3.815-10.166-6.985-14.947-6.985h0c-4.835,0-10.218,3.142-14.956,6.935   C180.289,455.44,167.029,460,153.401,460h-2.835c-47.886,0-88.886-33.66-98.345-80.053c29.506-1.111,53.087-25.279,53.087-54.947   c0-21.979-12.944-40.939-31.647-49.746c0.996-3.243,1.536-6.686,1.536-10.254c0-19.33-15.728-35-35.13-35   c-4.215,0-8.257,0.741-12.002,2.098l-4.247-26.091C13.918,145.185,61.05,90,122.896,90h165.57   C350.312,90,397.444,145.185,387.544,206.007z"/>
	<path id="XMLID_977_" style="fill:#833428;" d="M377.78,265.995l-17.906,110.012C351.993,424.424,310.028,460,260.796,460h-2.531   c-13.583,0-26.827-4.499-37.409-12.983c-4.777-3.83-10.192-7.017-14.987-7.017h0c-4.848,0-10.247,3.159-14.994,6.966   C180.271,455.469,167.012,460,153.401,460h-2.835c-47.886,0-88.886-33.66-98.345-80.053c29.506-1.111,53.087-25.279,53.087-54.947   c0-21.979-12.944-40.939-31.647-49.746c0.996-3.243,1.536-6.686,1.536-10.254c0-19.33-15.728-35-35.13-35   c-4.215,0-8.257,0.741-12.002,2.098l-4.247-26.091C13.918,145.185,61.05,90,122.896,90h30.496h10.869h93.708   c13.62,0,20.199,16.54,10.346,25.908C252.736,130.723,230.444,140,205.681,140c-9.091,0-17.846-1.254-26.057-3.573   c-17.305-4.888-34.462,8.174-34.144,26.092c0.008,0.462,0.019,0.924,0.031,1.387c2.048,74.43,63.014,134.655,137.735,136.069   C319.403,300.658,352.517,287.732,377.78,265.995z"/>
	<path id="XMLID_975_" style="fill:#361C0A;" d="M255.867,46v8c-16.465,0-30.383,7.968-34.723,18.824l-4.181,36.351   c-0.711,6.184-5.548,10.825-11.282,10.825s-10.571-4.641-11.282-10.825l-8.605-74.82c-0.124-1.081-0.379-2.138-0.759-3.146   l-5.078-13.49c-1.579-4.196-0.918-8.995,1.724-12.504l0.514-0.682c2.16-2.869,5.39-4.532,8.8-4.532h29.373   c3.41,0,6.64,1.664,8.8,4.532l0.514,0.682c2.641,3.509,3.303,8.308,1.724,12.504l-5.078,13.491   c-0.379,1.008-0.634,2.065-0.759,3.146l-2.649,23.036C231.013,50.408,242.782,46,255.867,46z"/>
	<path id="XMLID_973_" style="fill:#677445;" d="M437.5,148.693c-45.647,17.245-98.279,15.338-144.549-9.69   c-1.148-0.621-2.287-1.254-3.416-1.897c-37.834-21.557-47.547-57.71-39.348-89.736c22.494-24.294,58.218-35.869,96.97-15.998   c1.156,0.593,2.308,1.2,3.457,1.821C396.884,58.222,427.155,101.159,437.5,148.693z"/>
	<path id="XMLID_1296_" style="fill:#798751;" d="M437.5,148.693L250.188,47.37c22.494-24.294,58.218-35.869,96.97-15.998   c1.156,0.593,2.308,1.2,3.457,1.821C396.884,58.222,427.155,101.159,437.5,148.693z"/>
</g>















</svg>
