<?xml version="1.0" encoding="iso-8859-1"?>
<!-- Generator: Adobe Illustrator 18.0.0, SVG Export Plug-In . SVG Version: 6.00 Build 0)  -->
<!DOCTYPE svg PUBLIC "-//W3C//DTD SVG 1.1//EN" "http://www.w3.org/Graphics/SVG/1.1/DTD/svg11.dtd">
<svg version="1.1" id="Capa_1" xmlns="http://www.w3.org/2000/svg" xmlns:xlink="http://www.w3.org/1999/xlink" x="0px" y="0px"
	 viewBox="0 0 407.2 407.2" style="enable-background:new 0 0 407.2 407.2;" xml:space="preserve">
<g>
	<path style="fill:#B5E58C;" d="M212.625,88.29v36.29h-36.29c-48.76,0-88.28-39.53-88.28-88.29V0h36.28
		C173.095,0,212.625,39.53,212.625,88.29z"/>
	<path style="fill:#9BC671;" d="M212.625,124.58h-36.29c-48.76,0-88.28-39.53-88.28-88.29V0L212.625,124.58z"/>
	<path style="fill:#AD6D1F;" d="M194.456,201.35c-19.77-56.223,9.887-118.048,66.11-137.817l6.989,19.875
		c-45.264,15.916-69.14,65.69-53.224,110.954L194.456,201.35z"/>
	<path style="fill:#D14253;" d="M339.865,262.48l-37.18,110.8c-5.33,15.87-18.08,27.59-33.45,32c-4.38,1.25-8.97,1.92-13.67,1.92
		c-1.53,0-3.08-0.07-4.64-0.22c-12.74-1.18-24.53-7.23-32.93-16.88c-3.8-4.37-9.1-6.56-14.4-6.56c-5.29,0-10.59,2.19-14.4,6.56
		c-4.19,4.82-9.24,8.75-14.83,11.61c-5.6,2.87-11.72,4.68-18.09,5.27c-6.31,0.59-12.5-0.04-18.31-1.7
		c-15.38-4.41-28.13-16.13-33.45-32l-37.18-110.8c-3.71-11.07-5.51-22.45-5.51-33.74c0-28.95,11.87-57.24,33.8-77.65
		c7.7-7.17,17.14-11.58,26.98-13.12c2.64-0.42,5.3-0.63,7.98-0.63c9.85,0,19.75,2.84,28.41,8.61c13.51,9.01,29.06,13.51,44.6,13.51
		c15.55,0,31.1-4.5,44.6-13.51c8.67-5.77,18.57-8.61,28.42-8.61c2.68,0,5.34,0.21,7.98,0.63c9.84,1.54,19.28,5.95,26.98,13.12
		C342.045,179.45,353.095,223.02,339.865,262.48z"/>
	<path style="fill:#EA535E;" d="M339.865,262.48l-37.18,110.8c-5.33,15.87-18.08,27.59-33.45,32c-4.38,1.25-8.97,1.92-13.67,1.92
		c-1.53,0-3.08-0.07-4.64-0.22c-12.74-1.18-24.53-7.23-32.93-16.88c-3.8-4.37-9.1-6.56-14.4-6.56V159.46
		c15.55,0,31.1-4.5,44.6-13.51c8.67-5.77,18.57-8.61,28.42-8.61c2.68,0,5.34,0.21,7.98,0.63c9.84,1.54,19.28,5.95,26.98,13.12
		C342.045,179.45,353.095,223.02,339.865,262.48z"/>
</g>
<g>
</g>
<g>
</g>
<g>
</g>
<g>
</g>
<g>
</g>
<g>
</g>
<g>
</g>
<g>
</g>
<g>
</g>
<g>
</g>
<g>
</g>
<g>
</g>
<g>
</g>
<g>
</g>
<g>
</g>
</svg>
