<?xml version="1.0" encoding="iso-8859-1"?>
<!-- Generator: Adobe Illustrator 19.0.0, SVG Export Plug-In . SVG Version: 6.00 Build 0)  -->
<svg version="1.1" id="Layer_1" xmlns="http://www.w3.org/2000/svg" xmlns:xlink="http://www.w3.org/1999/xlink" x="0px" y="0px"
	 viewBox="0 0 512.003 512.003" style="enable-background:new 0 0 512.003 512.003;" xml:space="preserve">
<path style="fill:#FF7876;" d="M255.992,131.675C-65.168,72.961,77.28,355.532,148.209,472.476
	c16.459,27.137,52.176,35.161,78.723,17.77l3.808-2.495c15.336-10.047,35.168-10.047,50.504,0l3.808,2.495
	c26.547,17.393,62.264,9.368,78.721-17.77C434.703,355.532,577.153,72.961,255.992,131.675z"/>
<path style="fill:#FFFFFF;" d="M276.452,256.785l-20.46,20.46l-20.46-20.46c-14.556-14.556-38.156-14.556-52.714,0l0,0
	c-14.556,14.556-14.556,38.156,0,52.712c1.006,1.005,64.316,64.316,64.031,64.031c5.049,5.049,13.236,5.049,18.285,0
	c0.636-0.636,65.747-65.747,64.031-64.03c14.556-14.556,14.556-38.156,0-52.712l0,0
	C314.608,242.229,291.008,242.229,276.452,256.785z"/>
<path style="fill:#FFDA79;" d="M315.886,87.059c-14.296,27.046-38.296,43.981-59.893,44.615
	c-11.664-18.197-11.188-47.565,3.116-74.628c14.312-27.078,38.312-44.012,59.918-44.623
	C330.667,30.628,330.191,59.997,315.886,87.059z"/>
<path style="fill:#58595B;" d="M314.176,111.969c26.115-31.751,33.841-77.27,15.316-106.238c-2.351-3.676-6.457-5.839-10.817-5.727
	c-26.806,0.759-54.498,20.869-70.551,51.236c-6.129,11.596-10.048,23.75-11.766,35.605l-24.314-30.722
	c-4.257-5.38-12.073-6.29-17.451-2.033c-5.38,4.257-6.29,12.071-2.033,17.451l34.068,43.046
	C-13.503,84.884,9.053,267.003,137.587,478.92c9.707,16.007,25.118,27.104,43.394,31.244c21.916,4.963,39.178-0.628,56.567-12.02
	c11.203-7.342,25.681-7.34,36.887,0c17.188,11.266,34.259,17.074,56.567,12.021c18.275-4.141,33.685-15.237,43.394-31.244
	C489.604,288.975,532.057,99.898,314.176,111.969z M270.093,62.853c10.121-19.148,26.216-33.135,41.811-36.969
	c5.607,15.056,3.114,36.233-7.002,55.369c-8.51,16.1-25.004,33.777-41.918,36.599C257.535,102.831,260.052,81.845,270.093,62.853z
	 M353.151,466.034c-6.181,10.191-15.997,17.258-27.639,19.895c-15.932,3.61-26.917-1.66-37.459-8.571
	c-19.476-12.759-44.647-12.762-64.122,0.002c-9.437,6.182-20.546,12.404-37.459,8.569c-11.642-2.637-21.457-9.704-27.639-19.896
	C115.458,394.52,34.164,241.118,81.391,172.561c24.432-35.463,82.422-45.11,172.366-28.666c1.169,0.214,2.321,0.204,2.243,0.204
	c10.658,0,133.811-30.742,174.593,28.462C478.856,242.624,392.515,401.135,353.151,466.034z"/>
<g>
</g>
<g>
</g>
<g>
</g>
<g>
</g>
<g>
</g>
<g>
</g>
<g>
</g>
<g>
</g>
<g>
</g>
<g>
</g>
<g>
</g>
<g>
</g>
<g>
</g>
<g>
</g>
<g>
</g>
</svg>
