<?xml version="1.0" encoding="iso-8859-1"?>
<!-- Generator: Adobe Illustrator 19.0.0, SVG Export Plug-In . SVG Version: 6.00 Build 0)  -->
<svg version="1.1" id="Layer_1" xmlns="http://www.w3.org/2000/svg" xmlns:xlink="http://www.w3.org/1999/xlink" x="0px" y="0px"
	 viewBox="0 0 502 502" style="enable-background:new 0 0 502 502;" xml:space="preserve">
<g>
	<path style="fill:#4FC497;" d="M330.762,88.587c-29.017,0-56.24,9.256-79.762,25.447c-23.522-16.191-50.745-25.447-79.762-25.447
		C82.189,88.587,10,175.711,10,283.184S82.189,477.78,171.238,477.78c29.017,0,56.24-9.256,79.762-25.447
		c23.522,16.191,50.745,25.447,79.762,25.447c89.05,0,161.238-87.124,161.238-194.596S419.811,88.587,330.762,88.587z"/>
	<g>
		<path style="fill:#333333;" d="M452.475,139.203c-32.388-39.088-75.613-60.616-121.713-60.616
			c-24.098,0-47.876,6.07-69.696,17.663c0.774-7.652,2.641-17.393,6.822-27.923c2.038-5.133-0.471-10.946-5.604-12.984
			c-5.131-2.037-10.947,0.471-12.984,5.604c-5.335,13.438-7.529,25.782-8.331,35.321c-21.829-11.605-45.62-17.681-69.731-17.681
			c-46.1,0-89.325,21.527-121.713,60.616C17.589,177.747,0,228.881,0,283.184c0,54.303,17.589,105.437,49.525,143.98
			c32.388,39.089,75.613,60.616,121.713,60.616c24.125,0,47.93-6.082,69.77-17.701c0.086,5.449,4.523,9.841,9.992,9.841
			c5.469,0,9.906-4.392,9.992-9.841c21.839,11.618,45.645,17.701,69.77,17.701c46.1,0,89.325-21.527,121.713-60.616
			C484.411,388.62,502,337.487,502,283.184C502,228.881,484.411,177.747,452.475,139.203z M330.762,467.779
			c-25.961,0-51.582-8.19-74.092-23.684c-1.707-1.175-3.688-1.763-5.67-1.763s-3.963,0.587-5.67,1.763
			c-22.51,15.494-48.131,23.684-74.092,23.684C87.846,467.779,20,384.97,20,283.184S87.846,98.587,171.238,98.587
			c25.962,0,51.582,8.19,74.092,23.685c3.414,2.351,7.926,2.351,11.34,0c22.51-15.495,48.13-23.685,74.092-23.685
			c83.393,0,151.238,82.81,151.238,184.596S414.154,467.779,330.762,467.779z"/>
		<path style="fill:#333333;" d="M132.462,133.826c-6.731,2.919-13.314,6.53-19.564,10.732c-5.456,3.668-10.742,7.846-15.713,12.416
			c-4.065,3.738-4.331,10.064-0.593,14.13c1.972,2.145,4.663,3.231,7.364,3.231c2.418,0,4.845-0.873,6.766-2.639
			c4.229-3.888,8.715-7.435,13.336-10.541c5.24-3.524,10.745-6.545,16.361-8.981c5.067-2.197,7.394-8.086,5.196-13.153
			C143.417,133.954,137.527,131.628,132.462,133.826z"/>
		<path style="fill:#333333;" d="M66,281.094c0-27.815,6.794-54.588,19.647-77.424c2.709-4.813,1.003-10.91-3.81-13.619
			c-4.814-2.71-10.91-1.004-13.62,3.81C53.683,219.684,46,249.849,46,281.094c0,31.934,7.998,62.651,23.129,88.831
			c1.854,3.206,5.213,4.998,8.668,4.998c1.697,0,3.419-0.433,4.994-1.344c4.782-2.764,6.418-8.88,3.654-13.662
			C73.069,336.775,66,309.52,66,281.094z"/>
		<path style="fill:#333333;" d="M273.204,37.716c1.899,1.671,4.256,2.492,6.602,2.492c2.774,0,5.535-1.148,7.512-3.395
			c1.655-1.881,3.398-3.739,5.181-5.52c3.906-3.904,3.908-10.236,0.004-14.142c-3.905-3.906-10.237-3.909-14.143-0.003
			c-2.083,2.082-4.121,4.253-6.058,6.455C268.653,27.749,269.058,34.068,273.204,37.716z"/>
	</g>
</g>
<g>
</g>
<g>
</g>
<g>
</g>
<g>
</g>
<g>
</g>
<g>
</g>
<g>
</g>
<g>
</g>
<g>
</g>
<g>
</g>
<g>
</g>
<g>
</g>
<g>
</g>
<g>
</g>
<g>
</g>
</svg>
